<svg width="585" height="69" viewBox="0 0 585 69" fill="none" xmlns="http://www.w3.org/2000/svg">
<mask id="path-1-outside-1_6_42" maskUnits="userSpaceOnUse" x="-8" y="-18" width="601" height="102" fill="black">
<rect fill="white" x="-8" y="-18" width="601" height="102"/>
<path d="M19.5312 20.1719V29.9375H29.2969C32.5521 29.9375 34.1797 28.3099 34.1797 25.0547C34.1797 21.7995 32.5521 20.1719 29.2969 20.1719H19.5312ZM19.5312 49.4688V69H0V0.640625H29.2969C45.5729 0.640625 53.7109 8.77865 53.7109 25.0547C53.7109 37.1641 49.2025 44.765 40.1855 47.8574L58.5938 69H36.5723L19.5312 49.4688ZM84.2773 0.640625V69H64.7461V0.640625H84.2773ZM108.691 39.7031V69H89.1602V0.640625L133.105 29.9375V0.640625H152.637V69L108.691 39.7031ZM177.051 0.640625V69H157.52V0.640625H177.051ZM218.359 20.1719V69H198.828V20.1719H181.934V0.640625H235.645V20.1719H218.359ZM240.527 0.640625H260.059V25.0547H284.473V0.640625H304.004V69H284.473V44.5859H260.059V69H240.527V0.640625ZM358.105 59.2344L353.223 69H333.691L367.871 0.640625L402.051 69H382.52L377.637 59.2344H358.105ZM370.947 39.7031L367.871 32.916L364.697 39.7031H370.947ZM455.762 0.640625L489.941 69H470.41L455.762 39.7031L436.23 69L416.699 39.7031L402.051 69H382.52L416.699 0.640625L436.23 34.8203L455.762 0.640625ZM516.016 0.640625V69H496.484V0.640625H516.016ZM540.43 39.7031V69H520.898V0.640625L564.844 29.9375V0.640625H584.375V69L540.43 39.7031Z"/>
</mask>
<path d="M19.5312 20.1719V29.9375H29.2969C32.5521 29.9375 34.1797 28.3099 34.1797 25.0547C34.1797 21.7995 32.5521 20.1719 29.2969 20.1719H19.5312ZM19.5312 49.4688V69H0V0.640625H29.2969C45.5729 0.640625 53.7109 8.77865 53.7109 25.0547C53.7109 37.1641 49.2025 44.765 40.1855 47.8574L58.5938 69H36.5723L19.5312 49.4688ZM84.2773 0.640625V69H64.7461V0.640625H84.2773ZM108.691 39.7031V69H89.1602V0.640625L133.105 29.9375V0.640625H152.637V69L108.691 39.7031ZM177.051 0.640625V69H157.52V0.640625H177.051ZM218.359 20.1719V69H198.828V20.1719H181.934V0.640625H235.645V20.1719H218.359ZM240.527 0.640625H260.059V25.0547H284.473V0.640625H304.004V69H284.473V44.5859H260.059V69H240.527V0.640625ZM358.105 59.2344L353.223 69H333.691L367.871 0.640625L402.051 69H382.52L377.637 59.2344H358.105ZM370.947 39.7031L367.871 32.916L364.697 39.7031H370.947ZM455.762 0.640625L489.941 69H470.41L455.762 39.7031L436.23 69L416.699 39.7031L402.051 69H382.52L416.699 0.640625L436.23 34.8203L455.762 0.640625ZM516.016 0.640625V69H496.484V0.640625H516.016ZM540.43 39.7031V69H520.898V0.640625L564.844 29.9375V0.640625H584.375V69L540.43 39.7031Z" fill="white"/>
<path d="M19.5312 20.1719V12.1719H11.5312V20.1719H19.5312ZM19.5312 29.9375H11.5312V37.9375H19.5312V29.9375ZM19.5312 49.4688L25.5593 44.2093L11.5312 28.1312L11.5312 49.4688H19.5312ZM19.5312 69V77H27.5312V69H19.5312ZM0 69H-8V77H0V69ZM0 0.640625V-7.35938H-8V0.640625H0ZM40.1855 47.8574L37.5903 40.2901L26.3469 44.1461L34.152 53.1106L40.1855 47.8574ZM58.5938 69V77H76.1665L64.6273 63.7468L58.5938 69ZM36.5723 69L30.5442 74.2595L32.9353 77H36.5723V69ZM11.5312 20.1719V29.9375H27.5312V20.1719H11.5312ZM19.5312 37.9375H29.2969V21.9375H19.5312V37.9375ZM29.2969 37.9375C32.1576 37.9375 35.7726 37.2169 38.6158 34.3737C41.4591 31.5304 42.1797 27.9154 42.1797 25.0547H26.1797C26.1797 25.4491 26.0865 24.2756 27.3021 23.0599C28.5178 21.8443 29.6913 21.9375 29.2969 21.9375V37.9375ZM42.1797 25.0547C42.1797 22.1939 41.4591 18.579 38.6158 15.7357C35.7726 12.8925 32.1576 12.1719 29.2969 12.1719V28.1719C29.6913 28.1719 28.5178 28.2651 27.3021 27.0494C26.0865 25.8338 26.1797 24.6602 26.1797 25.0547H42.1797ZM29.2969 12.1719H19.5312V28.1719H29.2969V12.1719ZM11.5312 49.4688V69H27.5312V49.4688H11.5312ZM19.5312 61H0V77H19.5312V61ZM8 69V0.640625H-8V69H8ZM0 8.64062H29.2969V-7.35938H0V8.64062ZM29.2969 8.64062C36.2017 8.64062 39.911 10.3614 41.9506 12.401C43.9901 14.4406 45.7109 18.1498 45.7109 25.0547H61.7109C61.7109 15.6835 59.3627 7.18573 53.2643 1.08729C47.1658 -5.01116 38.6681 -7.35938 29.2969 -7.35938V8.64062ZM45.7109 25.0547C45.7109 30.1835 44.7478 33.5664 43.4489 35.7562C42.2431 37.7891 40.4541 39.3079 37.5903 40.2901L42.7808 55.4247C48.9339 53.3145 53.9076 49.4866 57.2102 43.9186C60.4198 38.5075 61.7109 32.0352 61.7109 25.0547H45.7109ZM34.152 53.1106L52.5602 74.2532L64.6273 63.7468L46.2191 42.6042L34.152 53.1106ZM58.5938 61H36.5723V77H58.5938V61ZM42.6003 63.7405L25.5593 44.2093L13.5032 54.7282L30.5442 74.2595L42.6003 63.7405ZM84.2773 0.640625H92.2773V-7.35938H84.2773V0.640625ZM84.2773 69V77H92.2773V69H84.2773ZM64.7461 69H56.7461V77H64.7461V69ZM64.7461 0.640625V-7.35938H56.7461V0.640625H64.7461ZM76.2773 0.640625V69H92.2773V0.640625H76.2773ZM84.2773 61H64.7461V77H84.2773V61ZM72.7461 69V0.640625H56.7461V69H72.7461ZM64.7461 8.64062H84.2773V-7.35938H64.7461V8.64062ZM108.691 39.7031L113.129 33.0467L100.691 24.755V39.7031H108.691ZM108.691 69V77H116.691V69H108.691ZM89.1602 69H81.1602V77H89.1602V69ZM89.1602 0.640625L93.5978 -6.01578L81.1602 -14.3075V0.640625H89.1602ZM133.105 29.9375L128.668 36.5939L141.105 44.8856V29.9375H133.105ZM133.105 0.640625V-7.35938H125.105V0.640625H133.105ZM152.637 0.640625H160.637V-7.35938H152.637V0.640625ZM152.637 69L148.199 75.6564L160.637 83.9481V69H152.637ZM100.691 39.7031V69H116.691V39.7031H100.691ZM108.691 61H89.1602V77H108.691V61ZM97.1602 69V0.640625H81.1602V69H97.1602ZM84.7226 7.29703L128.668 36.5939L137.543 23.2811L93.5978 -6.01578L84.7226 7.29703ZM141.105 29.9375V0.640625H125.105V29.9375H141.105ZM133.105 8.64062H152.637V-7.35938H133.105V8.64062ZM144.637 0.640625V69H160.637V0.640625H144.637ZM157.074 62.3436L113.129 33.0467L104.254 46.3595L148.199 75.6564L157.074 62.3436ZM177.051 0.640625H185.051V-7.35938H177.051V0.640625ZM177.051 69V77H185.051V69H177.051ZM157.52 69H149.52V77H157.52V69ZM157.52 0.640625V-7.35938H149.52V0.640625H157.52ZM169.051 0.640625V69H185.051V0.640625H169.051ZM177.051 61H157.52V77H177.051V61ZM165.52 69V0.640625H149.52V69H165.52ZM157.52 8.64062H177.051V-7.35938H157.52V8.64062ZM218.359 20.1719V12.1719H210.359V20.1719H218.359ZM218.359 69V77H226.359V69H218.359ZM198.828 69H190.828V77H198.828V69ZM198.828 20.1719H206.828V12.1719H198.828V20.1719ZM181.934 20.1719H173.934V28.1719H181.934V20.1719ZM181.934 0.640625V-7.35938H173.934V0.640625H181.934ZM235.645 0.640625H243.645V-7.35938H235.645V0.640625ZM235.645 20.1719V28.1719H243.645V20.1719H235.645ZM210.359 20.1719V69H226.359V20.1719H210.359ZM218.359 61H198.828V77H218.359V61ZM206.828 69V20.1719H190.828V69H206.828ZM198.828 12.1719H181.934V28.1719H198.828V12.1719ZM189.934 20.1719V0.640625H173.934V20.1719H189.934ZM181.934 8.64062H235.645V-7.35938H181.934V8.64062ZM227.645 0.640625V20.1719H243.645V0.640625H227.645ZM235.645 12.1719H218.359V28.1719H235.645V12.1719ZM240.527 0.640625V-7.35938H232.527V0.640625H240.527ZM260.059 0.640625H268.059V-7.35938H260.059V0.640625ZM260.059 25.0547H252.059V33.0547H260.059V25.0547ZM284.473 25.0547V33.0547H292.473V25.0547H284.473ZM284.473 0.640625V-7.35938H276.473V0.640625H284.473ZM304.004 0.640625H312.004V-7.35938H304.004V0.640625ZM304.004 69V77H312.004V69H304.004ZM284.473 69H276.473V77H284.473V69ZM284.473 44.5859H292.473V36.5859H284.473V44.5859ZM260.059 44.5859V36.5859H252.059V44.5859H260.059ZM260.059 69V77H268.059V69H260.059ZM240.527 69H232.527V77H240.527V69ZM240.527 8.64062H260.059V-7.35938H240.527V8.64062ZM252.059 0.640625V25.0547H268.059V0.640625H252.059ZM260.059 33.0547H284.473V17.0547H260.059V33.0547ZM292.473 25.0547V0.640625H276.473V25.0547H292.473ZM284.473 8.64062H304.004V-7.35938H284.473V8.64062ZM296.004 0.640625V69H312.004V0.640625H296.004ZM304.004 61H284.473V77H304.004V61ZM292.473 69V44.5859H276.473V69H292.473ZM284.473 36.5859H260.059V52.5859H284.473V36.5859ZM252.059 44.5859V69H268.059V44.5859H252.059ZM260.059 61H240.527V77H260.059V61ZM248.527 69V0.640625H232.527V69H248.527ZM358.105 59.2344V51.2344H353.161L350.95 55.6567L358.105 59.2344ZM353.223 69V77H358.167L360.378 72.5777L353.223 69ZM333.691 69L326.536 65.4223L320.747 77H333.691V69ZM367.871 0.640625L375.027 -2.93708L367.871 -17.2479L360.716 -2.93708L367.871 0.640625ZM402.051 69V77H414.995L409.206 65.4223L402.051 69ZM382.52 69L375.364 72.5777L377.575 77H382.52V69ZM377.637 59.2344L384.792 55.6567L382.581 51.2344H377.637V59.2344ZM370.947 39.7031V47.7031H383.357L378.234 36.4006L370.947 39.7031ZM367.871 32.916L375.158 29.6135L367.985 13.7874L360.624 29.5272L367.871 32.916ZM364.697 39.7031L357.45 36.3143L352.125 47.7031H364.697V39.7031ZM350.95 55.6567L346.067 65.4223L360.378 72.5777L365.261 62.8121L350.95 55.6567ZM353.223 61H333.691V77H353.223V61ZM340.847 72.5777L375.027 4.21833L360.716 -2.93708L326.536 65.4223L340.847 72.5777ZM360.716 4.21833L394.895 72.5777L409.206 65.4223L375.027 -2.93708L360.716 4.21833ZM402.051 61H382.52V77H402.051V61ZM389.675 65.4223L384.792 55.6567L370.481 62.8121L375.364 72.5777L389.675 65.4223ZM377.637 51.2344H358.105V67.2344H377.637V51.2344ZM378.234 36.4006L375.158 29.6135L360.585 36.2185L363.661 43.0056L378.234 36.4006ZM360.624 29.5272L357.45 36.3143L371.944 43.0919L375.118 36.3048L360.624 29.5272ZM364.697 47.7031H370.947V31.7031H364.697V47.7031ZM455.762 0.640625L462.917 -2.93708L456.232 -16.3071L448.816 -3.32849L455.762 0.640625ZM489.941 69V77H502.886L497.097 65.4223L489.941 69ZM470.41 69L463.255 72.5777L465.466 77H470.41V69ZM455.762 39.7031L462.917 36.1254L456.752 23.7953L449.105 35.2655L455.762 39.7031ZM436.23 69L429.574 73.4376L436.23 83.4222L442.887 73.4376L436.23 69ZM416.699 39.7031L423.356 35.2655L415.709 23.7953L409.544 36.1254L416.699 39.7031ZM402.051 69V77H406.995L409.206 72.5777L402.051 69ZM382.52 69L375.364 65.4223L369.575 77H382.52V69ZM416.699 0.640625L423.645 -3.32849L416.229 -16.3071L409.544 -2.93708L416.699 0.640625ZM436.23 34.8203L429.285 38.7894L436.23 50.9448L443.176 38.7894L436.23 34.8203ZM448.606 4.21833L482.786 72.5777L497.097 65.4223L462.917 -2.93708L448.606 4.21833ZM489.941 61H470.41V77H489.941V61ZM477.566 65.4223L462.917 36.1254L448.606 43.2808L463.255 72.5777L477.566 65.4223ZM449.105 35.2655L429.574 64.5624L442.887 73.4376L462.418 44.1407L449.105 35.2655ZM442.887 64.5624L423.356 35.2655L410.043 44.1407L429.574 73.4376L442.887 64.5624ZM409.544 36.1254L394.895 65.4223L409.206 72.5777L423.855 43.2808L409.544 36.1254ZM402.051 61H382.52V77H402.051V61ZM389.675 72.5777L423.855 4.21833L409.544 -2.93708L375.364 65.4223L389.675 72.5777ZM409.753 4.60974L429.285 38.7894L443.176 30.8512L423.645 -3.32849L409.753 4.60974ZM443.176 38.7894L462.708 4.60974L448.816 -3.32849L429.285 30.8512L443.176 38.7894ZM516.016 0.640625H524.016V-7.35938H516.016V0.640625ZM516.016 69V77H524.016V69H516.016ZM496.484 69H488.484V77H496.484V69ZM496.484 0.640625V-7.35938H488.484V0.640625H496.484ZM508.016 0.640625V69H524.016V0.640625H508.016ZM516.016 61H496.484V77H516.016V61ZM504.484 69V0.640625H488.484V69H504.484ZM496.484 8.64062H516.016V-7.35938H496.484V8.64062ZM540.43 39.7031L544.867 33.0467L532.43 24.755V39.7031H540.43ZM540.43 69V77H548.43V69H540.43ZM520.898 69H512.898V77H520.898V69ZM520.898 0.640625L525.336 -6.01578L512.898 -14.3075V0.640625H520.898ZM564.844 29.9375L560.406 36.5939L572.844 44.8856V29.9375H564.844ZM564.844 0.640625V-7.35938H556.844V0.640625H564.844ZM584.375 0.640625H592.375V-7.35938H584.375V0.640625ZM584.375 69L579.937 75.6564L592.375 83.9481V69H584.375ZM532.43 39.7031V69H548.43V39.7031H532.43ZM540.43 61H520.898V77H540.43V61ZM528.898 69V0.640625H512.898V69H528.898ZM516.461 7.29703L560.406 36.5939L569.281 23.2811L525.336 -6.01578L516.461 7.29703ZM572.844 29.9375V0.640625H556.844V29.9375H572.844ZM564.844 8.64062H584.375V-7.35938H564.844V8.64062ZM576.375 0.640625V69H592.375V0.640625H576.375ZM588.813 62.3436L544.867 33.0467L535.992 46.3595L579.937 75.6564L588.813 62.3436Z" fill="url(#paint0_linear_6_42)" mask="url(#path-1-outside-1_6_42)"/>
<defs>
<linearGradient id="paint0_linear_6_42" x1="0" y1="37.5" x2="590" y2="37.5" gradientUnits="userSpaceOnUse">
<stop stop-color="#5830B3"/>
<stop offset="0.16" stop-color="#5E30AF"/>
<stop offset="0.335" stop-color="#7532A0"/>
<stop offset="0.505" stop-color="#79329D"/>
<stop offset="0.67" stop-color="#8D3490"/>
<stop offset="0.81" stop-color="#4A2FBD" stop-opacity="0.5"/>
<stop offset="0.945" stop-color="#833396"/>
</linearGradient>
</defs>
</svg>
